<svg width="988" height="1126" viewBox="0 0 988 1126" fill="none" xmlns="http://www.w3.org/2000/svg">
<path d="M528.458 2.26891C551.18 0.211857 560.169 41.8185 564.831 59.1847C570.527 64.9956 578.186 70.4342 584.278 75.9988C606.584 96.3586 626.206 118.551 646.208 141.11C679.345 178.491 701.76 223.423 726.089 266.668C733.748 280.279 739.873 295.828 746.526 309.963C759.517 302.198 773.241 291.122 786.32 282.992C790.01 280.699 795.497 275.917 799.29 274.666L799.389 264.47C805.052 256.721 827.221 243.07 834.901 235.601C834.423 234.3 833.378 233.529 832.224 232.773C805.459 215.285 775.132 200.809 753.283 176.95C745.657 168.622 745.756 159.044 754.696 151.986C762.354 151.555 770.156 151.853 777.831 151.871C785.391 151.889 793.056 151.643 800.593 152.002C805.091 152.217 809.566 152.93 814.069 153.163C818.413 153.388 822.756 153.239 827.099 153.595C844.616 155.03 862.012 157.85 879.43 160.041C885.483 160.803 891.625 160.747 897.683 161.449C905.111 162.309 912.479 163.778 919.923 164.683C934.114 166.408 948.227 168.989 962.363 171.101C968.46 172.012 975.206 172.063 981.083 173.96C982.711 174.485 985.234 176.048 986.07 177.555C988.682 182.241 979.632 217.725 977.669 224.884C974.986 234.681 971.335 244.258 968.18 253.918L949.101 312.457C943.262 330.286 938.287 349.143 931.31 366.475C928.747 372.841 913.606 401.872 904.699 397.329C897.87 388.621 886.808 350.294 884.081 338.567C881.123 325.864 877.253 300.901 877.231 287.935C864.739 294.244 851.698 308.933 838.359 314.866C836.441 315.721 830.998 313.853 829.398 312.368L829.447 312.609C825.065 315.21 813.047 323.129 809.522 326.053C831.729 330.621 839.058 344.968 828.117 365.119C824.752 371.309 820.799 374.57 815.746 379.241C829.42 384.132 835.654 392.99 839.19 405.641C840.779 411.332 853.457 425.397 853.501 431.863C852.869 444.693 856.058 451.641 859.439 462.481C858.471 478.815 861.776 471.803 865.894 478.827C880.766 504.219 891.498 537.623 895.847 566.673C897.766 579.5 901.708 585.036 901.802 596.389C901.944 613.945 903.434 628.047 901.037 644.948C892.735 687.146 880.106 725.253 852.517 758.989C845.106 768.044 838.574 779.392 830.844 789.052C819.765 802.885 809.731 818.599 798.268 832.311C792.632 839.046 784.545 850.718 779.091 856.486C769.909 864.81 761.849 875.987 752.953 884.218C715.467 918.888 671.774 957.523 628.856 984.953C628.076 995.454 626.239 1006.18 625.277 1016.04C622.759 1041.86 621.428 1057.79 606.375 1079.9C587.467 1107.69 568.828 1117.24 536.101 1123.1C512.89 1127.26 487.093 1124.65 465.733 1114.03C459.449 1110.91 453.14 1106.36 447.333 1102.39C434.121 1109.27 420.971 1117.82 406.125 1121.1C374.559 1128.08 329.74 1124.58 302.674 1105.97C296.318 1101.5 276.198 1087.89 275.979 1078.04C275.846 1072.04 275.622 1069.74 274.314 1063.73C271.211 1049.42 271.602 1038.56 276.155 1024.9C279.457 1014.99 287.868 1010.37 290.364 1003.1C285.179 998.11 277.927 994.492 272.201 990.242C267.949 987.081 263.565 982.77 259.213 979.741C245.915 970.471 233.285 960.822 220.676 950.64C213.925 945.186 207.794 939.99 201.342 934.178C197.418 930.643 189.938 926.366 186.133 922.847C176.53 913.957 166.57 905.451 157.33 896.203C153.082 891.756 147.463 887.863 143.345 883.393C129.432 868.284 115.543 852.945 102.521 837.055C99.2717 833.091 97.0104 827.373 93.7 823.349C79.2253 805.75 65.7573 787.227 52.4921 768.704C47.0861 761.067 39.557 743.429 34.5441 733.951C27.4517 720.541 18.3935 702.128 13.7066 687.849C-0.68553 643.986 -1.69542 595.691 7.47857 550.662C10.3704 536.466 20.6256 509.978 27.2529 497.128C33.7801 485.164 42.1955 473.232 50.9603 462.779C57.7466 454.685 62.7207 448.034 68.7999 439.428C77.3125 428.056 86.0858 416.991 95.1086 406.031C101.003 398.872 102.827 393.524 110.988 388.173C110.718 380.486 105.681 368.808 103.826 359.807C96.173 322.66 96.5606 290.748 113.707 256.225C117.687 248.211 122.903 240.747 127.894 233.319C110.213 222.018 98.2727 212.327 84.3396 196.784C83.2334 195.55 77.3576 188.267 80.762 187.039C89.9707 183.717 96.9878 183.358 105.514 177.985C101.878 178.223 96.565 176.882 92.1891 176.775C85.7883 176.619 79.564 176.802 73.1923 176.638C50.3364 162.361 25.1204 86.5485 35.8208 60.8973C39.3907 52.3396 100.593 71.5377 107.946 76.1176C110.096 77.4569 119.491 82.9115 120.715 82.9005C121.177 81.14 120.14 76.1627 119.67 74.0629C117.338 63.6579 125.068 22.4702 133.749 17.3936C138.077 17.1865 140.759 20.1236 143.832 22.665C176.811 49.9445 203.531 85.4467 213.829 127.541C214.925 132.02 215.838 140.032 218.056 143.747C220.054 142.59 222.072 141.466 224.109 140.377C239.787 132.026 272.638 119.69 290.378 117.736C333.565 112.98 386.371 117.876 428.201 130.398C460.743 139.799 490.291 157.207 514.963 180.306C525.042 189.743 525.89 192.237 532.114 203.954C534.961 204.124 538.219 204.811 540.809 206.046C563.418 216.816 587.863 225.702 608.898 239.441C631.105 253.944 651.937 272.269 670.982 290.68C676.288 295.811 682.556 299.218 687.806 304.859C684.936 295.228 677.157 282.102 672.219 272.966C651.668 234.944 628.609 198.296 601.025 164.913C592.415 154.492 586.224 146.877 576.416 136.411C562.962 122.048 532.23 100.304 521.807 86.1273C517.748 70.7894 513.242 41.8933 512.646 27.5409C512.084 14.01 518.274 6.75658 528.458 2.26891Z" fill="#636060"/>
<path d="M738.911 535.616C742.952 534.876 750.94 537.188 755.581 537.404C760.441 537.63 764.807 537.57 769.667 537.5C772.048 543.601 773.889 554.709 775.528 561.708C779.365 577.999 782.692 594.586 785.094 611.157C785.523 619.085 786.458 626.519 786.958 634.469C787.794 647.769 787.206 660.92 788.899 674.286C789.867 681.895 788.476 691.544 788.91 699.34C789.069 702.144 787.321 706.29 787.481 709.275C787.772 723.114 787.217 736.694 784.671 750.313C778.508 765.185 756.867 788.161 746.097 801.72C741.368 807.311 734.859 812.408 730.224 817.911C719.97 830.089 708.496 840.679 697.301 851.95C693.266 856.018 689.835 860.73 685.838 864.848L685.008 864.491C683.507 861.956 682.281 856.326 681.418 853.231C679.57 847.001 677.041 841.179 674.924 835.065C665.083 807.685 659.447 779.106 651.547 751.231C643.514 722.878 634.91 694.453 629.126 665.494C626.399 651.848 618.844 626.689 619.004 613.389C624.925 609.645 631.237 604.51 637.516 600.398L711.965 552.427C718.233 548.461 733.028 537.826 738.911 535.616Z" fill="#403E3F"/>
<path d="M509.431 862.88C515.922 861.33 532.223 866.866 538.368 869.808C557.409 878.934 570.148 894.048 576.751 914.254C582.068 932.315 585.037 952.894 585.603 971.752C585.84 979.741 581.969 999.638 580.605 1008.18C578.78 1019.63 571.242 1040.26 563.748 1048.62C558.322 1054.66 543.26 1062.39 535.485 1065.82C533.566 1066.69 525.841 1066.96 522.442 1068.19C504.153 1070.04 465.825 1062.91 457.95 1044.71C448.621 1023.14 446.195 984.755 444.868 960.976C442.643 921.093 464.505 866.564 509.431 862.88Z" fill="#403E3F"/>
<path d="M511.828 893.532C550.509 892.135 545.899 987.235 537.844 1010.84C532.844 1025.49 530.37 1028.24 517.129 1034.71C474.206 1040.75 483.301 928.307 495.919 906.364C500.686 898.073 503.225 896.369 511.828 893.532Z" fill="#636060"/>
<path d="M370.54 863.947C373.186 863.413 385.063 863.512 387.886 863.952C392.318 870.836 392.053 932.282 391.472 943.355C390.623 959.552 389.025 980.819 389.92 998.341C390.127 1002.39 388.75 1025.37 391.807 1030.42C404.292 1033.73 418.547 1025.41 428.815 1036.67C428.865 1037.66 428.871 1038.41 429.219 1039.33C431.614 1045.68 428.005 1056.1 425.846 1062.61C416.345 1063.26 404.008 1065.41 394.611 1065.82C384.074 1066.29 368.467 1066.44 357.863 1065.99C346.62 1065.51 332.373 1063 320.967 1061.99C317.51 1061.68 315.26 1060.74 312.044 1060.53L311.513 1060.5C306.747 1056.88 305.604 1054.72 304.944 1048.82C301.885 1021.51 332.571 1035.91 346.474 1028.94C349.56 1027.4 346.727 1012.48 346.968 1008.91C346.64 1000.52 347.227 991.413 346.95 983.089C346.156 959.2 347.743 936.565 353.138 913.237C353.562 911.406 353.179 909.767 351.981 908.288C342.526 904.918 315.749 937.84 307.834 909.976C302.586 891.508 312.715 889.898 326.894 881.073C334.764 876.174 344.416 871.49 353.107 868.065C357.969 866.151 365.149 865.376 370.54 863.947Z" fill="#403E3F"/>
<path d="M109.187 478.353C109.932 483.042 109.012 484.398 108.706 488.787C108.596 490.103 111.012 497.835 110.786 498.415C108.021 505.53 110.206 509.842 110.961 516.967C111.266 519.852 109.494 524.35 109.683 527.457C109.874 530.599 110.554 533.536 110.791 536.634L112.637 560.773C113.28 568.267 113.068 575.645 113.563 582.133C114.12 589.44 118.032 600.15 118.604 609.2C118.929 614.341 118.661 624.248 119.193 627.981C122.058 648.082 124.37 668.04 128.172 688.014C128.68 690.681 128.374 694.359 128.798 697.163L135.411 738.651C137.793 754.095 142.15 769.017 145.612 784.214C145.979 785.825 146.074 786.479 145.443 787.711C142.804 786.787 128.657 767.329 126.208 763.942C123.975 760.116 119.736 754.266 117.148 750.406C111.642 742.088 106.198 733.725 100.816 725.324C97.5513 720.14 94.8226 713.415 91.8031 708.011C81.9088 690.307 71.8138 671.603 66.8508 651.76C64.2408 641.331 62.2593 626.194 61.1751 615.281C60.9497 613.016 61.8723 606.566 62.0724 603.751C64.2458 574.65 72.1135 546.265 85.2291 520.201C87.5234 515.595 90.5985 511.466 92.8609 507.171C98.0654 497.292 103.544 487.98 109.187 478.353Z" fill="#403E3F"/>
<path d="M549.13 269.706C550.74 270.067 551.526 270.278 553.115 270.391C559.625 270.853 573.513 279.048 579.137 282.824C589.254 289.615 600.178 298.386 609.811 305.988C629.725 321.7 655.406 341.213 673.072 359.192C669.371 362.254 662.356 366.795 658.216 369.642L629.23 389.499C616.854 398.189 604.379 406.737 591.805 415.141C583.69 420.671 579.005 422.978 571.512 429.595L571.033 429.494C567.498 417.693 565.348 408.894 563.325 396.669C561.175 387.893 558.316 378.973 556.634 370.103C551.977 345.554 549.86 320.974 547.563 296.143C547.152 291.705 549.921 286.98 549.708 284.237C549.269 278.627 548.882 275.417 549.13 269.706Z" fill="#403E3F"/>
<path d="M666.369 417.251L667.156 417.97C667.167 419.821 662.191 438.784 661.845 443.15C661.185 451.461 664.786 459.191 664.605 464.921C655.494 472.034 635.767 480.767 625.898 488.55C622.429 491.286 583.778 516.387 581.677 516.883L580.886 515.077C577.592 505.7 576.564 496.209 574.601 486.557C573.403 480.665 574.53 477.359 574.58 471.423C580.385 468.74 587.522 464.215 593.245 461.004C607.045 453.262 621.077 445.031 634.431 436.555C642.86 431.204 659.326 423.111 666.369 417.251Z" fill="#403E3F"/>
<path d="M820.282 519.686C820.502 519.763 820.733 519.825 820.953 519.916C827.699 522.735 839.311 556.309 841.664 564.347C844.215 573.067 846.491 582.023 847.684 591.04C848.602 597.951 845.386 604.489 847.602 611.125C847.926 612.092 847.871 612.136 847.382 613.027C846.04 615.49 846.607 632.331 846.194 636.949C845.529 644.41 843.539 651.26 841.224 658.331C840.3 661.157 838.717 663.889 837.32 666.529C839.91 644.124 838.519 620.279 835.061 598.138C834.082 591.464 834 584.272 832.894 577.658C830.525 563.528 826.995 549.546 823.927 535.557C822.805 530.444 821.184 525.703 820.392 520.462L820.282 519.686Z" fill="#403E3F"/>
</svg>
